<svg width="13" height="23" viewBox="0 0 13 23" fill="none" xmlns="http://www.w3.org/2000/svg">
<path d="M3.07422 1.26685C3.51506 1.30124 3.92427 1.50919 4.21191 1.84497L11.7979 10.6936V10.6946C12.0563 10.9968 12.1982 11.3818 12.1982 11.7795C12.1981 12.1771 12.0562 12.5614 11.7979 12.8635V12.8645L4.21289 21.7131L4.20801 21.719L4.20312 21.7239C3.91015 22.041 3.50521 22.2329 3.07422 22.2581C2.6434 22.2832 2.21943 22.1403 1.8916 21.8596C1.5638 21.5789 1.35693 21.1818 1.31543 20.7522C1.27403 20.3225 1.40165 19.8932 1.66992 19.5549L1.67383 19.5491L1.67969 19.5432L8.33203 11.7786L1.67676 4.01587V4.01489C1.38917 3.67861 1.24694 3.24216 1.28125 2.80103C1.31568 2.35974 1.52397 1.95005 1.86035 1.66235C2.19663 1.37476 2.63308 1.23254 3.07422 1.26685Z" fill="white" stroke="white" stroke-width="0.809524"/>
</svg>
